<svg xmlns="http://www.w3.org/2000/svg" xmlns:xlink="http://www.w3.org/1999/xlink" width="500" zoomAndPan="magnify" viewBox="0 0 375 374.999991" height="500" preserveAspectRatio="xMidYMid meet" version="1.0"><defs><g/><clipPath id="26004414d3"><path d="M 106 214 L 253.402344 214 L 253.402344 266 L 106 266 Z M 106 214 " clip-rule="nonzero"/></clipPath></defs><rect x="-37.5" width="450" fill="#ffffff" y="-37.499999" height="449.999989" fill-opacity="1"/><rect x="-37.5" width="450" fill="#ffffff" y="-37.499999" height="449.999989" fill-opacity="1"/><path fill="#3f5965" d="M 184.347656 278.796875 C 186.96875 278.015625 189.523438 277.121094 192.007812 276.121094 C 149.015625 284.628906 105.828125 259.152344 93.101562 216.300781 C 80.375 173.449219 102.660156 128.527344 143.328125 112.191406 C 140.699219 112.710938 138.070312 113.351562 135.449219 114.128906 C 89.980469 127.632812 64.066406 175.441406 77.566406 220.914062 C 91.070312 266.382812 138.878906 292.296875 184.347656 278.796875 " fill-opacity="1" fill-rule="nonzero"/><path fill="#289db9" d="M 77.933594 256.996094 C 80.214844 258.785156 82.554688 260.441406 84.941406 261.976562 C 51.222656 230.035156 46.753906 177.078125 75.984375 139.796875 C 105.21875 102.515625 157.710938 94.222656 196.773438 119.351562 C 194.710938 117.398438 192.550781 115.519531 190.269531 113.734375 C 150.707031 82.714844 93.492188 89.636719 62.46875 129.199219 C 31.449219 168.757812 38.375 225.976562 77.933594 256.996094 " fill-opacity="1" fill-rule="nonzero"/><g clip-path="url(#26004414d3)"><path fill="#289db9" d="M 162.582031 252.839844 C 139.121094 246.53125 119.824219 232.464844 106.703125 214.148438 C 117.046875 236.992188 137.15625 255.195312 163.265625 262.210938 C 197.367188 271.378906 232.183594 258.902344 253.136719 233.191406 C 228.773438 253.265625 195.390625 261.65625 162.582031 252.839844 " fill-opacity="1" fill-rule="nonzero"/></g><g fill="#3f5965" fill-opacity="1"><g transform="translate(58.276649, 198.577194)"><g><path d="M 9.96875 -12.65625 L 7.75 0 L 0.515625 0 L 6.765625 -35.9375 L 19.34375 -35.90625 C 23.226562 -35.90625 26.28125 -34.828125 28.5 -32.671875 C 30.726562 -30.515625 31.703125 -27.703125 31.421875 -24.234375 C 31.160156 -20.710938 29.691406 -17.898438 27.015625 -15.796875 C 24.335938 -13.691406 20.925781 -12.640625 16.78125 -12.640625 Z M 10.984375 -18.65625 L 17 -18.609375 C 18.945312 -18.609375 20.5625 -19.109375 21.84375 -20.109375 C 23.125 -21.117188 23.890625 -22.476562 24.140625 -24.1875 C 24.390625 -25.894531 24.113281 -27.257812 23.3125 -28.28125 C 22.507812 -29.300781 21.328125 -29.84375 19.765625 -29.90625 L 12.953125 -29.9375 Z M 10.984375 -18.65625 "/></g></g></g><g fill="#3f5965" fill-opacity="1"><g transform="translate(87.754327, 198.577194)"><g><path d="M 10.6875 -23.75 C 12.78125 -26.082031 15.191406 -27.234375 17.921875 -27.203125 C 20.566406 -27.128906 22.507812 -26.175781 23.75 -24.34375 C 25 -22.507812 25.46875 -20.003906 25.15625 -16.828125 L 22.34375 0 L 15.375 0 L 18.21875 -16.90625 C 18.300781 -17.550781 18.316406 -18.144531 18.265625 -18.6875 C 18.097656 -20.457031 17.0625 -21.367188 15.15625 -21.421875 C 13.28125 -21.484375 11.632812 -20.675781 10.21875 -19 L 6.859375 0 L -0.09375 0 L 6.46875 -37.90625 L 13.453125 -37.90625 Z M 10.6875 -23.75 "/></g></g></g><g fill="#3f5965" fill-opacity="1"><g transform="translate(113.06219, 198.577194)"><g><path d="M 15.359375 -27.203125 C 17.703125 -27.171875 19.722656 -26.566406 21.421875 -25.390625 C 23.128906 -24.210938 24.382812 -22.585938 25.1875 -20.515625 C 25.988281 -18.453125 26.269531 -16.164062 26.03125 -13.65625 C 25.65625 -9.40625 24.179688 -5.96875 21.609375 -3.34375 C 19.035156 -0.71875 15.851562 0.5625 12.0625 0.5 C 9.75 0.457031 7.742188 -0.140625 6.046875 -1.296875 C 4.347656 -2.453125 3.097656 -4.054688 2.296875 -6.109375 C 1.492188 -8.171875 1.207031 -10.445312 1.4375 -12.9375 C 1.863281 -17.34375 3.359375 -20.84375 5.921875 -23.4375 C 8.492188 -26.039062 11.640625 -27.296875 15.359375 -27.203125 Z M 8.3125 -10.390625 C 8.34375 -8.804688 8.710938 -7.554688 9.421875 -6.640625 C 10.128906 -5.734375 11.128906 -5.265625 12.421875 -5.234375 C 14.554688 -5.171875 16.234375 -6.15625 17.453125 -8.1875 C 18.671875 -10.21875 19.238281 -12.882812 19.15625 -16.1875 C 19.082031 -17.769531 18.695312 -19.035156 18 -19.984375 C 17.300781 -20.929688 16.300781 -21.421875 15 -21.453125 C 12.925781 -21.515625 11.269531 -20.535156 10.03125 -18.515625 C 8.789062 -16.503906 8.21875 -13.796875 8.3125 -10.390625 Z M 8.3125 -10.390625 "/></g></g></g><g fill="#3f5965" fill-opacity="1"><g transform="translate(138.641462, 198.577194)"><g><path d="M 11.078125 -26.734375 L 10.484375 -23.578125 C 12.628906 -26.054688 15.222656 -27.265625 18.265625 -27.203125 C 20.785156 -27.148438 22.644531 -26.226562 23.84375 -24.4375 C 25.039062 -22.644531 25.476562 -20.160156 25.15625 -16.984375 L 22.34375 0 L 15.375 0 L 18.234375 -17.046875 C 18.316406 -17.691406 18.332031 -18.28125 18.28125 -18.8125 C 18.070312 -20.488281 17.019531 -21.351562 15.125 -21.40625 C 13.300781 -21.46875 11.664062 -20.617188 10.21875 -18.859375 L 6.890625 0 L -0.078125 0 L 4.5625 -26.703125 Z M 11.078125 -26.734375 "/></g></g></g><g fill="#3f5965" fill-opacity="1"><g transform="translate(163.973999, 198.577194)"><g><path d="M 12.765625 0.5 C 10.421875 0.476562 8.347656 -0.09375 6.546875 -1.21875 C 4.742188 -2.34375 3.398438 -3.890625 2.515625 -5.859375 C 1.628906 -7.828125 1.285156 -9.992188 1.484375 -12.359375 L 1.5625 -13.359375 C 1.800781 -15.953125 2.550781 -18.332031 3.8125 -20.5 C 5.082031 -22.675781 6.710938 -24.351562 8.703125 -25.53125 C 10.703125 -26.707031 12.910156 -27.265625 15.328125 -27.203125 C 18.765625 -27.128906 21.367188 -25.863281 23.140625 -23.40625 C 24.910156 -20.945312 25.582031 -17.832031 25.15625 -14.0625 L 24.75 -11.03125 L 8.390625 -11.03125 C 8.328125 -9.300781 8.742188 -7.914062 9.640625 -6.875 C 10.546875 -5.84375 11.785156 -5.3125 13.359375 -5.28125 C 15.890625 -5.21875 18.109375 -6.195312 20.015625 -8.21875 L 23.203125 -4.265625 C 22.191406 -2.753906 20.738281 -1.570312 18.84375 -0.71875 C 16.957031 0.125 14.929688 0.53125 12.765625 0.5 Z M 14.984375 -21.453125 C 13.703125 -21.484375 12.5625 -21.078125 11.5625 -20.234375 C 10.5625 -19.398438 9.671875 -17.945312 8.890625 -15.875 L 18.46875 -15.875 L 18.609375 -16.515625 C 18.703125 -17.171875 18.710938 -17.796875 18.640625 -18.390625 C 18.472656 -19.335938 18.066406 -20.078125 17.421875 -20.609375 C 16.785156 -21.148438 15.972656 -21.429688 14.984375 -21.453125 Z M 14.984375 -21.453125 "/></g></g></g><g fill="#289db9" fill-opacity="1"><g transform="translate(192.533591, 204.882335)"><g><path d="M 10.359375 -13.15625 L 8.0625 0 L 0.53125 0 L 7.03125 -37.359375 L 20.109375 -37.328125 C 24.148438 -37.328125 27.320312 -36.207031 29.625 -33.96875 C 31.9375 -31.726562 32.945312 -28.804688 32.65625 -25.203125 C 32.382812 -21.535156 30.859375 -18.609375 28.078125 -16.421875 C 25.296875 -14.234375 21.753906 -13.140625 17.453125 -13.140625 Z M 11.421875 -19.390625 L 17.671875 -19.34375 C 19.691406 -19.34375 21.367188 -19.863281 22.703125 -20.90625 C 24.035156 -21.945312 24.832031 -23.359375 25.09375 -25.140625 C 25.351562 -26.921875 25.066406 -28.34375 24.234375 -29.40625 C 23.398438 -30.46875 22.171875 -31.03125 20.546875 -31.09375 L 13.46875 -31.125 Z M 11.421875 -19.390625 "/></g></g></g><g fill="#289db9" fill-opacity="1"><g transform="translate(223.180487, 204.882335)"><g><path d="M 13.265625 0.515625 C 10.835938 0.492188 8.6875 -0.0976562 6.8125 -1.265625 C 4.9375 -2.441406 3.535156 -4.050781 2.609375 -6.09375 C 1.691406 -8.132812 1.335938 -10.390625 1.546875 -12.859375 L 1.609375 -13.875 C 1.867188 -16.582031 2.65625 -19.0625 3.96875 -21.3125 C 5.289062 -23.570312 6.984375 -25.3125 9.046875 -26.53125 C 11.117188 -27.757812 13.414062 -28.34375 15.9375 -28.28125 C 19.507812 -28.207031 22.210938 -26.890625 24.046875 -24.328125 C 25.890625 -21.773438 26.585938 -18.539062 26.140625 -14.625 L 25.734375 -11.46875 L 8.71875 -11.46875 C 8.65625 -9.675781 9.09375 -8.238281 10.03125 -7.15625 C 10.96875 -6.082031 12.25 -5.523438 13.875 -5.484375 C 16.507812 -5.421875 18.820312 -6.441406 20.8125 -8.546875 L 24.125 -4.4375 C 23.070312 -2.863281 21.5625 -1.632812 19.59375 -0.75 C 17.632812 0.125 15.523438 0.546875 13.265625 0.515625 Z M 15.578125 -22.296875 C 14.242188 -22.328125 13.054688 -21.90625 12.015625 -21.03125 C 10.984375 -20.164062 10.054688 -18.65625 9.234375 -16.5 L 19.1875 -16.5 L 19.34375 -17.171875 C 19.445312 -17.847656 19.457031 -18.492188 19.375 -19.109375 C 19.195312 -20.109375 18.773438 -20.882812 18.109375 -21.4375 C 17.441406 -21.988281 16.597656 -22.273438 15.578125 -22.296875 Z M 15.578125 -22.296875 "/></g></g></g><g fill="#289db9" fill-opacity="1"><g transform="translate(248.517427, 204.882335)"><g><path d="M 19.09375 -20.8125 C 18.09375 -20.976562 17.28125 -21.0625 16.65625 -21.0625 C 14.070312 -21.132812 12.023438 -20.171875 10.515625 -18.171875 L 7.3125 0 L 0.078125 0 L 4.90625 -27.765625 L 11.703125 -27.78125 L 11.03125 -24.40625 C 12.78125 -27.019531 14.9375 -28.328125 17.5 -28.328125 C 18.21875 -28.328125 19.054688 -28.207031 20.015625 -27.96875 Z M 19.09375 -20.8125 "/></g></g></g><g fill="#289db9" fill-opacity="1"><g transform="translate(264.901846, 204.882335)"><g><path d="M 17.265625 -2.875 C 15.210938 -0.5625 12.664062 0.566406 9.625 0.515625 C 6.957031 0.484375 4.9375 -0.472656 3.5625 -2.359375 C 2.195312 -4.242188 1.664062 -6.722656 1.96875 -9.796875 L 4.984375 -27.765625 L 12.21875 -27.765625 L 9.15625 -9.71875 C 9.09375 -9.15625 9.085938 -8.628906 9.140625 -8.140625 C 9.304688 -6.421875 10.253906 -5.535156 11.984375 -5.484375 C 14.222656 -5.421875 16.078125 -6.285156 17.546875 -8.078125 L 21.015625 -27.765625 L 28.296875 -27.765625 L 23.484375 0 L 16.734375 0 Z M 17.265625 -2.875 "/></g></g></g></svg>